<svg width="482" height="297" xmlns="http://www.w3.org/2000/svg">
 <defs>
  <linearGradient y2="1.07081" y1="-0.07081" x2="0.84751" x1="0.15249" id="a">
   <stop stop-color="#1cbb3b" offset="0"/>
   <stop stop-color="#136934" offset="1"/>
  </linearGradient>
 </defs>
 <g>
  <title>Layer 1</title>
  <g id="svg_1" transform="scale(1.04176904)">
   <path id="svg_2" fill="#0d9a2b" d="m358.82099,265.76488c-1.88,0 -3.76,-0.33 -5.65,-0.99c-1.9,-0.66 -3.9,-1.57 -6.02,-2.72l-0.68,0.31l-2.16,6.51c1.07,0.5 2.18,0.93 3.33,1.3s2.31,0.68 3.48,0.93c1.16,0.24 2.31,0.43 3.45,0.55c1.14,0.13 2.24,0.19 3.29,0.19c2.78,0 5.32,-0.38 7.62,-1.13c2.31,-0.75 4.29,-1.77 5.95,-3.07c1.65,-1.3 2.94,-2.81 3.87,-4.55s1.39,-3.6 1.39,-5.58c0,-1.52 -0.27,-2.86 -0.8,-4.02c-0.54,-1.17 -1.25,-2.21 -2.13,-3.12c-0.89,-0.92 -1.89,-1.73 -3.01,-2.46c-1.12,-0.72 -2.28,-1.39 -3.46,-2.02c-1.18,-0.62 -2.34,-1.24 -3.46,-1.83c-1.12,-0.6 -2.12,-1.23 -3.01,-1.9c-0.88,-0.67 -1.59,-1.41 -2.13,-2.22c-0.53,-0.82 -0.8,-1.75 -0.8,-2.8c0,-0.86 0.19,-1.64 0.56,-2.34s0.89,-1.3 1.57,-1.79c0.68,-0.5 1.49,-0.88 2.42,-1.15c0.94,-0.26 1.97,-0.4 3.11,-0.4c0.61,0 1.31,0.04 2.08,0.13c0.77,0.08 1.6,0.22 2.48,0.43c0.89,0.2 1.82,0.47 2.78,0.79c0.97,0.31 1.94,0.7 2.9,1.15l0.62,-0.28l2.16,-6.63c-1.07,-0.31 -2.15,-0.57 -3.24,-0.79c-1.09,-0.21 -2.15,-0.39 -3.19,-0.52c-1.04,-0.14 -2.02,-0.23 -2.92,-0.28c-0.91,-0.05 -1.71,-0.08 -2.41,-0.08c-2.61,0 -5.01,0.34 -7.19,1c-2.18,0.67 -4.06,1.62 -5.63,2.83c-1.58,1.21 -2.81,2.66 -3.69,4.34c-0.89,1.67 -1.33,3.51 -1.33,5.51c0,1.58 0.27,2.97 0.8,4.18c0.54,1.2 1.24,2.27 2.12,3.21c0.87,0.94 1.87,1.76 2.99,2.48s2.26,1.39 3.43,2.01c1.16,0.62 2.3,1.21 3.42,1.79c1.13,0.58 2.12,1.19 3,1.85c0.87,0.66 1.58,1.39 2.11,2.18c0.54,0.79 0.8,1.71 0.8,2.76c0,0.97 -0.23,1.84 -0.71,2.61c-0.47,0.77 -1.11,1.42 -1.91,1.96c-0.8,0.53 -1.74,0.95 -2.81,1.23c-1.07,0.29 -2.2,0.44 -3.39,0.44zm43.24,0c-1.88,0 -3.76,-0.33 -5.65,-0.99c-1.9,-0.66 -3.9,-1.57 -6.02,-2.72l-0.68,0.31l-2.16,6.51c1.07,0.5 2.18,0.93 3.33,1.3s2.31,0.68 3.47,0.93c1.17,0.24 2.32,0.43 3.46,0.55c1.14,0.13 2.24,0.19 3.29,0.19c2.78,0 5.32,-0.38 7.62,-1.13c2.31,-0.75 4.29,-1.77 5.95,-3.07c1.65,-1.3 2.94,-2.81 3.87,-4.55s1.39,-3.6 1.39,-5.58c0,-1.52 -0.27,-2.86 -0.8,-4.02c-0.54,-1.17 -1.25,-2.21 -2.13,-3.12c-0.89,-0.92 -1.89,-1.73 -3.01,-2.46c-1.13,-0.72 -2.28,-1.39 -3.46,-2.02c-1.18,-0.62 -2.34,-1.24 -3.46,-1.83c-1.12,-0.6 -2.12,-1.23 -3.01,-1.9c-0.88,-0.67 -1.59,-1.41 -2.13,-2.22c-0.53,-0.82 -0.8,-1.75 -0.8,-2.8c0,-0.86 0.19,-1.64 0.56,-2.34s0.89,-1.3 1.57,-1.79c0.68,-0.5 1.49,-0.88 2.42,-1.15c0.94,-0.26 1.97,-0.4 3.11,-0.4c0.61,0 1.31,0.04 2.08,0.13c0.77,0.08 1.6,0.22 2.48,0.43c0.89,0.2 1.81,0.47 2.78,0.79c0.97,0.31 1.94,0.7 2.9,1.15l0.62,-0.28l2.16,-6.63c-1.07,-0.31 -2.15,-0.57 -3.24,-0.79c-1.09,-0.21 -2.16,-0.39 -3.19,-0.52c-1.04,-0.14 -2.02,-0.23 -2.92,-0.28c-0.91,-0.05 -1.71,-0.08 -2.41,-0.08c-2.61,0 -5.01,0.34 -7.19,1c-2.18,0.67 -4.06,1.62 -5.63,2.83c-1.58,1.21 -2.81,2.66 -3.69,4.34c-0.89,1.67 -1.33,3.51 -1.33,5.51c0,1.58 0.27,2.97 0.8,4.18c0.54,1.2 1.24,2.27 2.12,3.21c0.87,0.94 1.87,1.76 2.99,2.48s2.26,1.39 3.43,2.01c1.16,0.62 2.3,1.21 3.42,1.79s2.12,1.19 3,1.85c0.87,0.66 1.58,1.39 2.11,2.18c0.54,0.79 0.8,1.71 0.8,2.76c0,0.97 -0.23,1.84 -0.71,2.61c-0.47,0.77 -1.11,1.42 -1.91,1.96c-0.8,0.53 -1.74,0.95 -2.81,1.23c-1.07,0.29 -2.2,0.44 -3.39,0.44zm31.88,5.46l25.71,0l1.82,-6.08l-17.53,0l4.44,-39.14l-9.29,0l-5.15,45.22z"/>
   <path id="svg_3" fill="#fff" d="m27.84,261.34488l1.42,9.88l13.24,0l-8.36,-45.22l-15.41,0l-18.73,45.22l10.25,0l3.61,-9.88l13.98,0zm-0.93,-6.76l-10.58,0l5.12,-13.95l2.25,-6.98l0.62,0l0.65,6.98l1.94,13.95zm28.4,16.64l9.69,0l3.18,-28.03l0.55,-7.34l0.62,0l2.5,6.76l13.27,28.61l13.4,0l5.16,-45.22l-9.7,0l-2.47,21.76l-0.61,8l-0.62,0l-2.66,-7.14l-10.37,-22.62l-16.79,0l-5.15,45.22zm80.86,0.62l26.12,13.05l7.37,-8.61l-20.8,-7.28c2.28,-1.11 4.35,-2.46 6.19,-4.05c1.84,-1.58 3.4,-3.37 4.69,-5.37c1.29,-1.99 2.28,-4.17 2.98,-6.54s1.05,-4.88 1.05,-7.53c0,-3.17 -0.49,-6 -1.47,-8.49c-0.97,-2.49 -2.37,-4.6 -4.2,-6.33c-1.82,-1.73 -4.02,-3.04 -6.6,-3.95s-5.48,-1.36 -8.69,-1.36c-2.59,0 -5.06,0.29 -7.41,0.88c-2.34,0.59 -4.53,1.43 -6.56,2.52c-2.02,1.09 -3.86,2.41 -5.51,3.96c-1.64,1.56 -3.05,3.3 -4.21,5.24c-1.16,1.93 -2.06,4.04 -2.7,6.34c-0.64,2.29 -0.96,4.72 -0.96,7.27c0,3.23 0.51,6.1 1.51,8.61c1.01,2.51 2.43,4.63 4.25,6.36s4,3.04 6.54,3.93c2.54,0.9 5.35,1.35 8.41,1.35zm2.07,-7.38c-1.6,0 -3.01,-0.37 -4.23,-1.1c-1.21,-0.73 -2.23,-1.71 -3.04,-2.96c-0.81,-1.24 -1.42,-2.7 -1.83,-4.37c-0.42,-1.66 -0.62,-3.42 -0.62,-5.28c0,-1.48 0.13,-2.95 0.38,-4.42c0.26,-1.48 0.64,-2.88 1.13,-4.22s1.1,-2.58 1.82,-3.72s1.55,-2.13 2.47,-2.96c0.93,-0.83 1.95,-1.49 3.06,-1.96s2.31,-0.71 3.61,-0.71c1.6,0 3.02,0.36 4.24,1.09c1.23,0.74 2.25,1.73 3.06,2.98c0.81,1.26 1.42,2.71 1.84,4.37c0.41,1.66 0.61,3.42 0.61,5.3c0,2.24 -0.29,4.43 -0.86,6.59c-0.58,2.15 -1.41,4.06 -2.49,5.75s-2.39,3.05 -3.93,4.08c-1.55,1.03 -3.28,1.54 -5.22,1.54zm54.69,-38.46l-12.56,0l-3.24,28.52c-0.31,2.8 -0.17,5.27 0.43,7.42s1.6,3.97 3.01,5.44s3.21,2.58 5.4,3.33s4.72,1.13 7.58,1.13c3.17,0 6.01,-0.45 8.53,-1.35c2.53,-0.89 4.69,-2.14 6.5,-3.75c1.81,-1.6 3.26,-3.52 4.35,-5.77c1.1,-2.24 1.8,-4.72 2.1,-7.44l3.15,-27.53l-9.69,0l-3.3,29.01c-0.19,1.57 -0.55,2.94 -1.08,4.11c-0.54,1.17 -1.21,2.16 -2.01,2.95s-1.71,1.39 -2.73,1.79s-2.1,0.6 -3.23,0.6c-1.15,0 -2.17,-0.2 -3.05,-0.6c-0.89,-0.4 -1.61,-1 -2.18,-1.79s-0.97,-1.78 -1.2,-2.97c-0.24,-1.18 -0.27,-2.55 -0.08,-4.12l3.3,-28.98zm59.35,35.34l1.42,9.88l13.25,0l-8.37,-45.22l-15.4,0l-18.74,45.22l10.25,0l3.61,-9.88l13.98,0zm-0.92,-6.76l-10.59,0l5.13,-13.95l2.25,-6.98l0.62,0l0.64,6.98l1.95,13.95zm28.39,16.64l9.69,0l3.18,-28.03l0.56,-7.34l0.62,0l2.5,6.76l13.27,28.61l13.4,0l5.15,-45.22l-9.69,0l-2.47,21.76l-0.62,8l-0.62,0l-2.65,-7.14l-10.37,-22.62l-16.79,0l-5.16,45.22z"/>
   <g id="svg_4" transform="matrix(1.9649492 0 0 1.9649492 132.263452 -9.555544)" fill="url(#a)">
    <path id="svg_5" d="m50,31.453a3.564,3.564 0 0 0 -3.559,3.559l0,6.582l7.118,0l0,-6.582a3.564,3.564 0 0 0 -3.559,-3.559zm0,14.856a2.46,2.46 0 1 0 -1.387,4.492l0,1.977a1.387,1.387 0 0 0 2.774,0l0,-1.978a2.454,2.454 0 0 0 1.074,-2.031a2.466,2.466 0 0 0 -2.461,-2.46z"/>
    <path id="svg_6" d="m66.008,22.418a147.36,147.36 0 0 1 -4.902,-0.586c-4.258,-0.602 -7.89,-2.098 -11.105,-3.477c-3.274,1.399 -6.883,2.88 -11.13,3.481c-1.663,0.23 -3.3,0.41 -4.882,0.582c-2.914,3.57 -6.512,6.508 -10.184,8.316c-0.195,0.098 -0.399,0.196 -0.602,0.29c0.66,8.265 3.215,17.52 7.239,26.194c4.547,9.782 11.64,18.355 19.558,23.676c7.922,-5.316 15.012,-13.89 19.555,-23.672c4.023,-8.671 6.574,-17.93 7.238,-26.195l-0.559,-0.27c-3.695,-1.82 -7.308,-4.769 -10.227,-8.339l0.001,0zm-4.254,34.484a2.2,2.2 0 0 1 -2.2,2.2l-19.108,0.003a2.2,2.2 0 0 1 -2.2,-2.2l0,-13.107a2.2,2.2 0 0 1 2.2,-2.2l3.004,0l0,-6.581c0,-3.614 2.937,-6.551 6.55,-6.551s6.551,2.937 6.551,6.55l0,6.583l3.004,0a2.2,2.2 0 0 1 2.2,2.199l-0.001,13.104z"/>
    <path id="svg_7" d="m89.336,22.957l-0.129,-1.863l-1.746,0c-0.457,-0.063 -2.11,-0.313 -2.285,-0.344a14.739,14.739 0 0 1 -3.414,-1.203c-3.094,-1.52 -6.352,-4.762 -8.114,-8.067c-0.695,-1.296 -2.144,-1.34 -5.312,-1.437c-0.356,-0.012 -0.637,-0.02 -0.758,-0.027a160.654,160.654 0 0 1 -4.727,-0.559c-2.832,-0.402 -5.68,-1.621 -8.433,-2.805c-1.215,-0.52 -2.469,-1.058 -3.719,-1.527l-0.7,-0.262l-0.698,0.262c-1.25,0.469 -2.508,1.008 -3.72,1.527c-2.753,1.184 -5.6,2.403 -8.425,2.805c-1.562,0.215 -3.176,0.39 -4.719,0.559c-0.133,0.011 -0.414,0.02 -0.77,0.027c-3.167,0.094 -4.616,0.14 -5.316,1.441c-1.757,3.297 -5.015,6.536 -8.12,8.063c-1.052,0.523 -2.196,0.93 -3.36,1.187c-0.219,0.04 -1.875,0.29 -2.328,0.356l-1.746,0l-0.13,1.863c-0.804,11.82 2.274,26.227 8.442,39.527c6.73,14.5 17.672,26.281 30.012,32.316l0.879,0.43l0.879,-0.43c12.34,-6.035 23.28,-17.816 30.016,-32.316c6.168,-13.297 9.246,-27.703 8.441,-39.523zm-17.059,35.527c-4.93,10.617 -12.758,19.898 -21.469,25.469a1.508,1.508 0 0 1 -1.617,0c-8.711,-5.566 -16.535,-14.852 -21.47,-25.469c-4.347,-9.367 -7.038,-19.422 -7.585,-28.309a1.503,1.503 0 0 1 0.918,-1.477c0.48,-0.203 0.953,-0.418 1.418,-0.648c3.41,-1.68 6.89,-4.59 9.562,-7.992a1.491,1.491 0 0 1 1.078,-0.57a6.25,6.25 0 0 0 0.313,-0.024c1.633,-0.176 3.328,-0.36 5.027,-0.594c4.102,-0.582 7.692,-2.12 10.863,-3.48c0.38,-0.16 0.895,-0.2 1.274,-0.04c3.261,1.4 6.851,2.938 10.934,3.516c1.738,0.242 3.468,0.43 4.992,0.594c0.094,0.012 0.215,0.02 0.363,0.027a1.5,1.5 0 0 1 1.082,0.57c2.672,3.403 6.176,6.325 9.61,8.016c0.453,0.227 0.906,0.434 1.37,0.63c0.59,0.245 0.958,0.84 0.919,1.476c-0.543,8.883 -3.239,18.938 -7.582,28.305z"/>
   </g>
  </g>
 </g>
</svg>
