<svg xmlns="http://www.w3.org/2000/svg" xmlns:xlink="http://www.w3.org/1999/xlink"><linearGradient id="a" gradientUnits="userSpaceOnUse" x1="22.575839" x2="77.427439" y1="-1.535925" y2="101.62493"><stop offset="0" stop-color="#1cbb3b"/><stop offset="1" stop-color="#136934"/></linearGradient><g transform="scale(1.04176904)"><path d="m-44.98-5.46c-1.88 0-3.76-.33-5.65-.99-1.9-.66-3.9-1.57-6.02-2.72l-.68.31-2.16 6.51c1.07.5 2.18.93 3.33 1.3s2.31.68 3.48.93c1.16.24 2.31.43 3.45.55 1.14.13 2.24.19 3.29.19 2.78 0 5.32-.38 7.62-1.13 2.31-.75 4.29-1.77 5.95-3.07 1.65-1.3 2.94-2.81 3.87-4.55s1.39-3.6 1.39-5.58c0-1.52-.27-2.86-.8-4.02-.54-1.17-1.25-2.21-2.13-3.12-.89-.92-1.89-1.73-3.01-2.46-1.12-.72-2.28-1.39-3.46-2.02-1.18-.62-2.34-1.24-3.46-1.83-1.12-.6-2.12-1.23-3.01-1.9-.88-.67-1.59-1.41-2.13-2.22-.53-.82-.8-1.75-.8-2.8 0-.86.19-1.64.56-2.34s.89-1.3 1.57-1.79c.68-.5 1.49-.88 2.42-1.15.94-.26 1.97-.4 3.11-.4.61 0 1.31.04 2.08.13.77.08 1.6.22 2.48.43.89.2 1.82.47 2.78.79.97.31 1.94.7 2.9 1.15l.62-.28 2.16-6.63c-1.07-.31-2.15-.57-3.24-.79-1.09-.21-2.15-.39-3.19-.52-1.04-.14-2.02-.23-2.92-.28-.91-.05-1.71-.08-2.41-.08-2.61 0-5.01.34-7.19 1-2.18.67-4.06 1.62-5.63 2.83-1.58 1.21-2.81 2.66-3.69 4.34-.89 1.67-1.33 3.51-1.33 5.51 0 1.58.27 2.97.8 4.18.54 1.2 1.24 2.27 2.12 3.21.87.94 1.87 1.76 2.99 2.48s2.26 1.39 3.43 2.01c1.16.62 2.3 1.21 3.42 1.79 1.13.58 2.12 1.19 3 1.85.87.66 1.58 1.39 2.11 2.18.54.79.8 1.71.8 2.76 0 .97-.23 1.84-.71 2.61-.47.77-1.11 1.42-1.91 1.96-.8.53-1.74.95-2.81 1.23-1.07.29-2.2.44-3.39.44zm43.24 0c-1.88 0-3.76-.33-5.65-.99-1.9-.66-3.9-1.57-6.02-2.72l-.68.31-2.16 6.51c1.07.5 2.18.93 3.33 1.3s2.31.68 3.47.93c1.17.24 2.32.43 3.46.55 1.14.13 2.24.19 3.29.19 2.78 0 5.32-.38 7.62-1.13 2.31-.75 4.29-1.77 5.95-3.07 1.65-1.3 2.94-2.81 3.87-4.55s1.39-3.6 1.39-5.58c0-1.52-.27-2.86-.8-4.02-.54-1.17-1.25-2.21-2.13-3.12-.89-.92-1.89-1.73-3.01-2.46-1.13-.72-2.28-1.39-3.46-2.02-1.18-.62-2.34-1.24-3.46-1.83-1.12-.6-2.12-1.23-3.01-1.9-.88-.67-1.59-1.41-2.13-2.22-.53-.82-.8-1.75-.8-2.8 0-.86.19-1.64.56-2.34s.89-1.3 1.57-1.79c.68-.5 1.49-.88 2.42-1.15.94-.26 1.97-.4 3.11-.4.61 0 1.31.04 2.08.13.77.08 1.6.22 2.48.43.89.2 1.81.47 2.78.79.97.31 1.94.7 2.9 1.15l.62-.28 2.16-6.63c-1.07-.31-2.15-.57-3.24-.79-1.09-.21-2.16-.39-3.19-.52-1.04-.14-2.02-.23-2.92-.28-.91-.05-1.71-.08-2.41-.08-2.61 0-5.01.34-7.19 1-2.18.67-4.06 1.62-5.63 2.83-1.58 1.21-2.81 2.66-3.69 4.34-.89 1.67-1.33 3.51-1.33 5.51 0 1.58.27 2.97.8 4.18.54 1.2 1.24 2.27 2.12 3.21.87.94 1.87 1.76 2.99 2.48s2.26 1.39 3.43 2.01c1.16.62 2.3 1.21 3.42 1.79s2.12 1.19 3 1.85c.87.66 1.58 1.39 2.11 2.18.54.79.8 1.71.8 2.76 0 .97-.23 1.84-.71 2.61-.47.77-1.11 1.42-1.91 1.96-.8.53-1.74.95-2.81 1.23-1.07.29-2.2.44-3.39.44zm31.88 5.46h25.71l1.82-6.08h-17.53l4.44-39.14h-9.29z" fill="#0d9a2b" transform="translate(403.80098 271.224887)"/><path d="m-137.5-9.88 1.42 9.88h13.24l-8.36-45.22h-15.41l-18.73 45.22h10.25l3.61-9.88zm-.93-6.76h-10.58l5.12-13.95 2.25-6.98h.62l.65 6.98zm28.4 16.64h9.69l3.18-28.03.55-7.34h.62l2.5 6.76 13.27 28.61h13.4l5.16-45.22h-9.7l-2.47 21.76-.61 8h-.62l-2.66-7.14-10.37-22.62h-16.79zm80.86.62 26.12 13.05 7.37-8.61-20.8-7.28c2.28-1.11 4.35-2.46 6.19-4.05 1.84-1.58 3.4-3.37 4.69-5.37 1.29-1.99 2.28-4.17 2.98-6.54s1.05-4.88 1.05-7.53c0-3.17-.49-6-1.47-8.49-.97-2.49-2.37-4.6-4.2-6.33-1.82-1.73-4.02-3.04-6.6-3.95s-5.48-1.36-8.69-1.36c-2.59 0-5.06.29-7.41.88-2.34.59-4.53 1.43-6.56 2.52-2.02 1.09-3.86 2.41-5.51 3.96-1.64 1.56-3.05 3.3-4.21 5.24-1.16 1.93-2.06 4.04-2.7 6.34-.64 2.29-.96 4.72-.96 7.27 0 3.23.51 6.1 1.51 8.61 1.01 2.51 2.43 4.63 4.25 6.36s4 3.04 6.54 3.93c2.54.9 5.35 1.35 8.41 1.35zm2.07-7.38c-1.6 0-3.01-.37-4.23-1.1-1.21-.73-2.23-1.71-3.04-2.96-.81-1.24-1.42-2.7-1.83-4.37-.42-1.66-.62-3.42-.62-5.28 0-1.48.13-2.95.38-4.42.26-1.48.64-2.88 1.13-4.22s1.1-2.58 1.82-3.72 1.55-2.13 2.47-2.96c.93-.83 1.95-1.49 3.06-1.96s2.31-.71 3.61-.71c1.6 0 3.02.36 4.24 1.09 1.23.74 2.25 1.73 3.06 2.98.81 1.26 1.42 2.71 1.84 4.37.41 1.66.61 3.42.61 5.3 0 2.24-.29 4.43-.86 6.59-.58 2.15-1.41 4.06-2.49 5.75s-2.39 3.05-3.93 4.08c-1.55 1.03-3.28 1.54-5.22 1.54zm54.69-38.46h-12.56l-3.24 28.52c-.31 2.8-.17 5.27.43 7.42s1.6 3.97 3.01 5.44 3.21 2.58 5.4 3.33 4.72 1.13 7.58 1.13c3.17 0 6.01-.45 8.53-1.35 2.53-.89 4.69-2.14 6.5-3.75 1.81-1.6 3.26-3.52 4.35-5.77 1.1-2.24 1.8-4.72 2.1-7.44l3.15-27.53h-9.69l-3.3 29.01c-.19 1.57-.55 2.94-1.08 4.11-.54 1.17-1.21 2.16-2.01 2.95s-1.71 1.39-2.73 1.79-2.1.6-3.23.6c-1.15 0-2.17-.2-3.05-.6-.89-.4-1.61-1-2.18-1.79s-.97-1.78-1.2-2.97c-.24-1.18-.27-2.55-.08-4.12zm59.35 35.34 1.42 9.88h13.25l-8.37-45.22h-15.4l-18.74 45.22h10.25l3.61-9.88zm-.92-6.76h-10.59l5.13-13.95 2.25-6.98h.62l.64 6.98zm28.39 16.64h9.69l3.18-28.03.56-7.34h.62l2.5 6.76 13.27 28.61h13.4l5.15-45.22h-9.69l-2.47 21.76-.62 8h-.62l-2.65-7.14-10.37-22.62h-16.79z" transform="translate(165.339996 271.224887)" fill="#fff"/><g fill="url(#a)" transform="matrix(1.9649492 0 0 1.9649492 132.263452 -9.555544)"><path d="m50 31.453a3.564 3.564 0 0 0 -3.559 3.559v6.582h7.118v-6.582a3.564 3.564 0 0 0 -3.559-3.559zm0 14.856a2.46 2.46 0 1 0 -1.387 4.492v1.977a1.387 1.387 0 0 0 2.774 0v-1.978a2.454 2.454 0 0 0 1.074-2.031 2.466 2.466 0 0 0 -2.461-2.46z"/><path d="m66.008 22.418a147.36 147.36 0 0 1 -4.902-.586c-4.258-.602-7.89-2.098-11.105-3.477-3.274 1.399-6.883 2.88-11.13 3.481-1.663.23-3.3.41-4.882.582-2.914 3.57-6.512 6.508-10.184 8.316-.195.098-.399.196-.602.29.66 8.265 3.215 17.52 7.239 26.194 4.547 9.782 11.64 18.355 19.558 23.676 7.922-5.316 15.012-13.89 19.555-23.672 4.023-8.671 6.574-17.93 7.238-26.195l-.559-.27c-3.695-1.82-7.308-4.769-10.227-8.339zm-4.254 34.484a2.2 2.2 0 0 1 -2.2 2.2l-19.108.003a2.2 2.2 0 0 1 -2.2-2.2v-13.107a2.2 2.2 0 0 1 2.2-2.2h3.004v-6.581c0-3.614 2.937-6.551 6.55-6.551s6.551 2.937 6.551 6.55v6.583h3.004a2.2 2.2 0 0 1 2.2 2.199z"/><path d="m89.336 22.957-.129-1.863h-1.746c-.457-.063-2.11-.313-2.285-.344a14.739 14.739 0 0 1 -3.414-1.203c-3.094-1.52-6.352-4.762-8.114-8.067-.695-1.296-2.144-1.34-5.312-1.437-.356-.012-.637-.02-.758-.027a160.654 160.654 0 0 1 -4.727-.559c-2.832-.402-5.68-1.621-8.433-2.805-1.215-.52-2.469-1.058-3.719-1.527l-.7-.262-.698.262c-1.25.469-2.508 1.008-3.72 1.527-2.753 1.184-5.6 2.403-8.425 2.805-1.562.215-3.176.39-4.719.559-.133.011-.414.02-.77.027-3.167.094-4.616.14-5.316 1.441-1.757 3.297-5.015 6.536-8.12 8.063-1.052.523-2.196.93-3.36 1.187-.219.04-1.875.29-2.328.356h-1.746l-.13 1.863c-.804 11.82 2.274 26.227 8.442 39.527 6.73 14.5 17.672 26.281 30.012 32.316l.879.43.879-.43c12.34-6.035 23.28-17.816 30.016-32.316 6.168-13.297 9.246-27.703 8.441-39.523zm-17.059 35.527c-4.93 10.617-12.758 19.898-21.469 25.469a1.508 1.508 0 0 1 -1.617 0c-8.711-5.566-16.535-14.852-21.47-25.469-4.347-9.367-7.038-19.422-7.585-28.309a1.503 1.503 0 0 1 .918-1.477c.48-.203.953-.418 1.418-.648 3.41-1.68 6.89-4.59 9.562-7.992a1.491 1.491 0 0 1 1.078-.57 6.25 6.25 0 0 0 .313-.024c1.633-.176 3.328-.36 5.027-.594 4.102-.582 7.692-2.12 10.863-3.48.38-.16.895-.2 1.274-.04 3.261 1.4 6.851 2.938 10.934 3.516 1.738.242 3.468.43 4.992.594.094.012.215.02.363.027a1.5 1.5 0 0 1 1.082.57c2.672 3.403 6.176 6.325 9.61 8.016.453.227.906.434 1.37.63.59.245.958.84.919 1.476-.543 8.883-3.239 18.938-7.582 28.305z"/></g></g></svg>
